<svg width="800" height="600" xmlns="http://www.w3.org/2000/svg">
 <!-- Created with Method Draw - http://github.com/duopixel/Method-Draw/ -->
 <g>
  <title>background</title>
  <rect fill="#fff" id="canvas_background" height="602" width="802" y="-1" x="-1"/>
 </g>
 <g>
  <title>Layer 1</title>
  <path stroke="#000" transform="rotate(-0.01437600888311863 401.24560546896697,299.6650085449354) " id="svg_8" d="m669.49444,184.58941c-53.36005,-68.65939 -152.63045,-114.9543 -266.74114,-115.10869c-170.45655,0.22056 -308.24669,103.04422 -308.57188,230.15122c0.32519,127.17316 138.11533,229.97477 308.57188,230.21738c114.08113,-0.15439 213.32196,-46.42725 266.71158,-115.08664l117.12606,-50.37522l4.22742,-1.80857c-38.75625,133.43698 -197.65392,233.43751 -388.06505,233.48163c-219.44137,-0.04411 -397.25895,-132.70914 -397.28851,-296.42859c0.05912,-163.65328 177.8767,-296.31831 397.28851,-296.36242c190.4407,0.04411 349.39749,100.08876 388.06505,233.54779l-4.16829,-1.78651l-117.15562,-50.44138zm127.53201,115.04252l-211.37085,91.06798l0,-50.66194l-324.44686,0l0,-80.74591l324.44686,0l0,-50.66194l211.37085,91.00181z" stroke-opacity="null" stroke-width="1.5" fill="#0f53ff"/>
 </g>
</svg>