<svg width="800" height="600" xmlns="http://www.w3.org/2000/svg">
 <!-- Created with Method Draw - http://github.com/duopixel/Method-Draw/ -->
 <g>
  <title>background</title>
  <rect fill="#fff" id="canvas_background" height="602" width="802" y="-1" x="-1"/>
 </g>
 <g>
  <title>Layer 1</title>
  <path stroke="#000" transform="rotate(179.96566772460938 399.6458740234375,300.4649353027344) " id="svg_8" d="m669.5207,184.76758c-53.6835,-69.03036 -153.55562,-115.5754 -268.35799,-115.73063c-171.48977,0.22175 -310.11513,103.60098 -310.44228,231.39473c0.32716,127.86028 138.95252,231.21733 310.44228,231.46125c114.77264,-0.15522 214.61501,-46.67809 268.32825,-115.70845l117.83602,-50.64739l4.25304,-1.81834c-38.99117,134.15794 -198.85199,234.69878 -390.41731,234.74313c-220.77152,-0.04435 -399.66693,-133.42617 -399.69667,-298.0302c0.05948,-164.53751 178.9549,-297.91933 399.69667,-297.96368c191.59506,0.04435 351.51536,100.62954 390.41731,234.80966l-4.19356,-1.79616l-117.86576,-50.71392zm128.30504,115.6641l-212.65207,91.56002l0,-50.93567l-326.4135,0l0,-81.18219l326.4135,0l0,-50.93567l212.65207,91.4935z" stroke-opacity="null" stroke-width="1.5" fill="#0f53ff"/>
 </g>
</svg>